<svg width="220" height="56" viewBox="0 0 220 56" fill="none" xmlns="http://www.w3.org/2000/svg">
<rect width="220" height="56" fill="white"/>
<path d="M33.5302 43.5225L30.1664 39.0919L20.9134 26.8813L31.4185 12.2539H25.9113L16.4673 25.3973V12.2539H12V43.8193H16.4673V28.4394L28.1397 43.8193H33.753L33.5302 43.5225Z" fill="url(#paint0_linear_5170_118032)"/>
<path d="M55.9731 26.9555L43.1866 43.8193H37.5732L50.4128 26.8813L41.9238 15.0628L39.9077 12.2539H45.4149L55.9731 26.9555Z" fill="url(#paint1_linear_5170_118032)"/>
<path d="M45.4149 12.2539L34.3686 40.6819L31.0049 36.2513L39.8122 12.2539H45.4149Z" fill="url(#paint2_linear_5170_118032)"/>
<path d="M79.4341 12.0106H85.0687V25.419H85.334L98.4494 12.0106H106.058L91.2444 26.6274L107.045 43.6608H99.1179L85.387 28.1007H85.0687V43.6608H79.4341V12.0106ZM124.118 22.4935C125.89 23.5217 127.291 24.9208 128.32 26.691C129.349 28.4611 129.859 30.3902 129.859 32.4783C129.859 34.5664 129.349 36.4955 128.32 38.2657C127.291 40.0358 125.89 41.4349 124.118 42.4631C122.346 43.4912 120.415 44 118.324 44C116.234 44 114.303 43.4806 112.531 42.4631C110.758 41.4349 109.358 40.0358 108.328 38.2657C107.299 36.4955 106.79 34.5664 106.79 32.4783C106.79 30.3902 107.31 28.4611 108.328 26.691C109.358 24.9208 110.758 23.5217 112.531 22.4935C114.303 21.4654 116.234 20.9566 118.324 20.9566C120.404 20.946 122.335 21.4654 124.118 22.4935ZM114.25 28.3021C113.146 29.415 112.594 30.8142 112.594 32.4783C112.594 34.1424 113.146 35.5416 114.25 36.6545C115.353 37.7675 116.722 38.3293 118.367 38.3293C120.011 38.3293 121.37 37.7675 122.441 36.6545C123.513 35.5416 124.054 34.1424 124.054 32.4783C124.054 30.8142 123.513 29.415 122.441 28.3021C121.37 27.1891 120.011 26.6274 118.367 26.6274C116.722 26.6274 115.353 27.1785 114.25 28.3021ZM152.705 38.2657C151.675 40.0358 150.285 41.4349 148.524 42.4631C146.762 43.4912 144.842 44 142.751 44C140.661 44 138.74 43.4806 136.979 42.4631C135.217 41.4349 133.817 40.0358 132.777 38.2657C131.737 36.4955 131.206 34.5664 131.206 32.4783C131.206 30.3902 131.726 28.4611 132.777 26.691C133.817 24.9208 135.217 23.5217 136.979 22.4935C138.74 21.4654 140.661 20.9566 142.751 20.9566C144.927 20.9566 146.805 21.5184 148.386 22.6525V12.371H154.243V32.4889C154.254 34.5664 153.734 36.4955 152.705 38.2657ZM138.634 28.3021C137.562 29.415 137.021 30.8142 137.021 32.4783C137.021 34.1424 137.562 35.5416 138.634 36.6545C139.706 37.7675 141.064 38.3293 142.709 38.3293C144.354 38.3293 145.722 37.7675 146.826 36.6545C147.93 35.5416 148.481 34.1424 148.481 32.4783C148.481 30.8142 147.93 29.415 146.826 28.3021C145.722 27.1891 144.354 26.6274 142.709 26.6274C141.064 26.6274 139.706 27.1785 138.634 28.3021ZM157.321 26.7758C158.318 25.0056 159.687 23.5853 161.438 22.5253C163.178 21.4654 165.099 20.9354 167.189 20.9354C169.099 20.9354 170.935 21.3806 172.696 22.2498C174.458 23.1295 175.911 24.4015 177.057 26.0762C178.203 27.7509 178.808 29.7118 178.872 31.9801C178.904 32.9341 178.84 33.8562 178.692 34.7466H162.085C162.35 35.849 162.944 36.7181 163.857 37.3647C164.77 38.0007 165.873 38.3293 167.189 38.3293C168.112 38.3293 168.866 38.2127 169.449 37.9689C170.033 37.7357 170.563 37.4177 171.041 37.0255L177.981 37.0679C177.057 39.1242 175.635 40.7883 173.725 42.0709C171.815 43.3534 169.693 43.9894 167.369 43.9894C165.247 43.9894 163.316 43.47 161.554 42.4525C159.793 41.4243 158.403 40.0358 157.374 38.2763C156.344 36.5167 155.835 34.5982 155.835 32.5101C155.814 30.4644 156.312 28.5565 157.321 26.7758ZM172.643 30.1146C172.197 29.0759 171.486 28.2279 170.521 27.5919C169.555 26.9559 168.494 26.6274 167.369 26.6274C166.117 26.6274 165.045 26.9453 164.144 27.5707C163.252 28.1961 162.562 29.0441 162.085 30.1146H172.643ZM198.821 37.9795V43.6608H180.877V37.9795L190.99 26.9877H181.323V21.3064H198.418V26.9771L188.263 37.9689H198.821V37.9795ZM202.068 17.9251C201.4 17.2574 201.06 16.4306 201.06 15.4449C201.06 14.4909 201.4 13.6747 202.068 13.007C202.737 12.3392 203.564 12 204.551 12C205.506 12 206.323 12.3392 206.992 13.007C207.66 13.6747 208 14.4909 208 15.4449C208 16.4306 207.66 17.2574 206.992 17.9251C206.323 18.5929 205.506 18.9321 204.551 18.9321C203.564 18.9321 202.737 18.6035 202.068 17.9251ZM201.644 21.3064H207.459V43.6502H201.644V21.3064ZM67.3161 43.9788H65.9473V12.0954H67.3161V43.9788Z" fill="url(#paint3_linear_5170_118032)"/>
<defs>
<linearGradient id="paint0_linear_5170_118032" x1="11.4545" y1="42.3366" x2="34.9355" y2="12.8664" gradientUnits="userSpaceOnUse">
<stop stop-color="#4562FF"/>
<stop offset="0.469" stop-color="#E287DF"/>
<stop offset="1" stop-color="#FFBE68"/>
</linearGradient>
<linearGradient id="paint1_linear_5170_118032" x1="37.9001" y1="20.0376" x2="52.3819" y2="45.1484" gradientUnits="userSpaceOnUse">
<stop stop-color="#4562FF"/>
<stop offset="0.469" stop-color="#E287DF"/>
<stop offset="1" stop-color="#FFBE68"/>
</linearGradient>
<linearGradient id="paint2_linear_5170_118032" x1="28.7254" y1="30.6599" x2="52.9792" y2="18.4685" gradientUnits="userSpaceOnUse">
<stop stop-color="#4562FF"/>
<stop offset="0.4046" stop-color="#E287DF"/>
<stop offset="1" stop-color="#FFBE68"/>
</linearGradient>
<linearGradient id="paint3_linear_5170_118032" x1="65.9519" y1="28.0371" x2="207.993" y2="28.0371" gradientUnits="userSpaceOnUse">
<stop stop-color="#4562FF"/>
<stop offset="0.469" stop-color="#E287DF"/>
<stop offset="1" stop-color="#FFBE68"/>
</linearGradient>
</defs>
</svg>
